Coordinates
version=1
nRows=21
nColumns=12
inDegrees=yes

Units are S.I. units (second, meters, Newtons, ...)
Angles are in degrees

endheader
time	SC_y	SC_z	SC_x	AC_y	AC_z	AC_x	GH_y	GH_z	GH_yy	EL_x	PS_y
       0.0              -51.49          32.86          21.31          59.75          6.919         -18.64          -98.0           55.7         -91.07          34.08          156.0
    0.0329              -51.49          32.86          21.31          59.75          6.917         -18.64         -97.96           55.7         -91.07          34.08          155.9
   0.06579              -51.49          32.86          21.32          59.75          6.915         -18.63         -97.92          55.71         -91.07          34.08          155.9
   0.09869              -51.49          32.86          21.32          59.75          6.913         -18.63         -97.87          55.71         -91.06          34.09          155.9
    0.1316              -51.49          32.86          21.33          59.75          6.911         -18.62         -97.83          55.71         -91.06          34.09          155.9
    0.1645              -51.49          32.86          21.33          59.75          6.909         -18.62         -97.78          55.71         -91.06          34.09          155.8
    0.1974              -51.49          32.86          21.34          59.75          6.906         -18.61         -97.73          55.71         -91.06          34.09          155.8
    0.2303              -51.49          32.86          21.34          59.74          6.904          -18.6         -97.67          55.72         -91.06           34.1          155.8
    0.2632               -51.5          32.85          21.35          59.74          6.901         -18.59         -97.61          55.72         -91.05           34.1          155.8
    0.2961               -51.5          32.85          21.36          59.74          6.898         -18.59         -97.54          55.72         -91.05           34.1          155.7
     0.329               -51.5          32.85          21.36          59.74          6.895         -18.58         -97.47          55.72         -91.05          34.11          155.7
    0.3618               -51.5          32.85          21.37          59.74          6.892         -18.57          -97.4          55.73         -91.05          34.11          155.7
    0.3947               -51.5          32.85          21.38          59.74          6.888         -18.56         -97.32          55.73         -91.04          34.12          155.6
    0.4276               -51.5          32.85          21.39          59.74          6.884         -18.55         -97.23          55.73         -91.04          34.12          155.6
    0.4605              -51.51          32.84           21.4          59.74           6.88         -18.54         -97.14          55.74         -91.04          34.13          155.5
    0.4934              -51.51          32.84          21.41          59.74          6.876         -18.53         -97.04          55.74         -91.03          34.13          155.5
    0.5263              -51.51          32.84          21.42          59.74          6.871         -18.51         -96.92          55.74         -91.03          34.14          155.4
    0.5592              -51.51          32.84          21.43          59.73          6.865          -18.5          -96.8          55.75         -91.02          34.14          155.4
    0.5921              -51.52          32.83          21.45          59.73          6.859         -18.48         -96.67          55.75         -91.02          34.15          155.3
     0.625              -51.52          32.83          21.46          59.73          6.853         -18.46         -96.53          55.76         -91.01          34.16          155.2
    0.6579              -51.52          32.83          21.48          59.73          6.846         -18.44         -96.37          55.76         -91.01          34.17          155.1
